# xmcd
#
# Track frame offsets:
#	150
#	18718
#	39095
#	61586
#	74170
#	90963
#	112908
#	132101
#	147663
#	163763
#	184707
#	211634
#	225085
#	249759
#	273109
#
# Disc length: 3933 seconds
#
# Revision: 2
# Processed by: cddbd v1.5.1PL0 Copyright (c) Steve Scherf et al.
# Submitted via: audiograbber 1.81.03
#
DISCID=b90f5b0f
DTITLE=Bucktown Kickback - Speakeasy
DYEAR=2004
DGENRE=Bluegrass
TTITLE0=Watch Yourself
TTITLE1=Give and Take
TTITLE2=A`Girl Like You
TTITLE3=Count On Me
TTITLE4=Ashes
TTITLE5=Everyday Life
TTITLE6=Big Sand Furnace
TTITLE7=Three Weeks
TTITLE8=Sips of You
TTITLE9=Punch In The Nose
TTITLE10=Since You Been Gone
TTITLE11=Millie's Mile
TTITLE12=Anything
TTITLE13=Meta
TTITLE14=Sweet Embrace
EXTD=www.bucktownkickback.com
EXTT0=
EXTT1=
EXTT2=
EXTT3=
EXTT4=
EXTT5=
EXTT6=
EXTT7=
EXTT8=
EXTT9=
EXTT10=
EXTT11=
EXTT12=
EXTT13=
EXTT14=
PLAYORDER=
